<?xml version="1.0" encoding="UTF-8" standalone="no"?>
<!-- Created with Inkscape (http://www.inkscape.org/) -->

<svg
   xmlns:dc="http://purl.org/dc/elements/1.1/"
   xmlns:cc="http://creativecommons.org/ns#"
   xmlns:rdf="http://www.w3.org/1999/02/22-rdf-syntax-ns#"
   xmlns:svg="http://www.w3.org/2000/svg"
   xmlns="http://www.w3.org/2000/svg"
   xmlns:sodipodi="http://sodipodi.sourceforge.net/DTD/sodipodi-0.dtd"
   xmlns:inkscape="http://www.inkscape.org/namespaces/inkscape"
   width="744.09448819"
   height="1052.3622047"
   id="svg2985"
   version="1.1"
   inkscape:version="0.48.4 r9939"
   sodipodi:docname="New document 2">
  <defs
     id="defs2987" />
  <sodipodi:namedview
     id="base"
     pagecolor="#ffffff"
     bordercolor="#ffffff"
     borderopacity="0.0"
     inkscape:pageopacity="0.0"
     inkscape:pageshadow="0"
     inkscape:zoom="1.1299119"
     inkscape:cx="-457.23139"
     inkscape:cy="937.53153"
     inkscape:document-units="px"
     inkscape:current-layer="layer1"
     showgrid="true"
     inkscape:snap-bbox="true"
     inkscape:window-width="1440"
     inkscape:window-height="838"
     inkscape:window-x="-8"
     inkscape:window-y="-8"
     inkscape:window-maximized="1">
    <inkscape:grid
       type="xygrid"
       id="grid2993"
       empspacing="6"
       visible="true"
       enabled="true"
       snapvisiblegridlinesonly="true"
       spacingx="9px"
       spacingy="9px" />
  </sodipodi:namedview>
  <metadata
     id="metadata2990">
    <rdf:RDF>
      <cc:Work
         rdf:about="">
        <dc:format>image/svg+xml</dc:format>
        <dc:type
           rdf:resource="http://purl.org/dc/dcmitype/StillImage" />
        <dc:title></dc:title>
      </cc:Work>
    </rdf:RDF>
  </metadata>
  <g
     inkscape:label="Layer 1"
     inkscape:groupmode="layer"
     id="layer1">
    <g
       id="g3808">
      <rect
         y="-99.637817"
         x="-810"
         height="36"
         width="108"
         id="rect2995"
         style="fill:#000000;fill-opacity:1;stroke:none" />
      <rect
         y="-135.63782"
         x="-774"
         height="108"
         width="36"
         id="rect2997"
         style="fill:#000000;fill-opacity:1;stroke:none" />
      <path
         d="m -711,-81.637817 a 45,45 0 1 1 -90,0 45,45 0 1 1 90,0 z"
         sodipodi:ry="45"
         sodipodi:rx="45"
         sodipodi:cy="-81.637817"
         sodipodi:cx="-756"
         id="path2999"
         style="fill:#4d4d4d;fill-opacity:1;stroke:#000000;stroke-width:4;stroke-miterlimit:4;stroke-dasharray:none"
         sodipodi:type="arc" />
    </g>
    <g
       id="g3859"
       transform="translate(-54,0)">
      <rect
         y="-99.637817"
         x="-648"
         height="36"
         width="108"
         id="rect2995-0"
         style="fill:#000000;fill-opacity:1;stroke:none" />
      <rect
         y="-81.637817"
         x="-612"
         height="54"
         width="36"
         id="rect2997-9"
         style="fill:#000000;fill-opacity:1;stroke:none" />
      <path
         d="m -711,-81.637817 a 45,45 0 1 1 -90,0 45,45 0 1 1 90,0 z"
         sodipodi:ry="45"
         sodipodi:rx="45"
         sodipodi:cy="-81.637817"
         sodipodi:cx="-756"
         id="path2999-4"
         style="fill:#00ffff;fill-opacity:1;stroke:#000000;stroke-width:4;stroke-miterlimit:4;stroke-dasharray:none"
         sodipodi:type="arc"
         transform="translate(162,2.6e-6)" />
    </g>
    <g
       id="g3920">
      <rect
         y="-99.637817"
         x="-594"
         height="36"
         width="108"
         id="rect2995-5"
         style="fill:#000000;fill-opacity:1;stroke:none" />
      <path
         transform="translate(216,0)"
         d="m -711,-81.637817 a 45,45 0 1 1 -90,0 45,45 0 1 1 90,0 z"
         sodipodi:ry="45"
         sodipodi:rx="45"
         sodipodi:cy="-81.637817"
         sodipodi:cx="-756"
         id="path2999-7"
         style="fill:#ff0000;fill-opacity:1;stroke:#000000;stroke-width:4;stroke-miterlimit:4;stroke-dasharray:none"
         sodipodi:type="arc" />
    </g>
    <g
       id="g3927">
      <rect
         y="-99.637817"
         x="-486"
         height="36"
         width="54"
         id="rect2995-1"
         style="fill:#000000;fill-opacity:1;stroke:none" />
      <rect
         y="-81.637817"
         x="-450"
         height="54"
         width="36"
         id="rect2997-4"
         style="fill:#000000;fill-opacity:1;stroke:none" />
      <path
         transform="translate(324,0)"
         d="m -711,-81.637817 a 45,45 0 1 1 -90,0 45,45 0 1 1 90,0 z"
         sodipodi:ry="45"
         sodipodi:rx="45"
         sodipodi:cy="-81.637817"
         sodipodi:cx="-756"
         id="path2999-2"
         style="fill:#ff0000;fill-opacity:1;stroke:#000000;stroke-width:4;stroke-miterlimit:4;stroke-dasharray:none"
         sodipodi:type="arc" />
    </g>
    <g
       id="g3935">
      <rect
         y="-81.637817"
         x="-342"
         height="54"
         width="36"
         id="rect2997-21"
         style="fill:#000000;fill-opacity:1;stroke:none" />
      <path
         transform="translate(432,0)"
         d="m -711,-81.637817 a 45,45 0 1 1 -90,0 45,45 0 1 1 90,0 z"
         sodipodi:ry="45"
         sodipodi:rx="45"
         sodipodi:cy="-81.637817"
         sodipodi:cx="-756"
         id="path2999-6"
         style="fill:#ffff00;fill-opacity:1;stroke:#000000;stroke-width:4;stroke-miterlimit:4;stroke-dasharray:none"
         sodipodi:type="arc" />
    </g>
    <path
       sodipodi:type="arc"
       style="fill:#0000ff;fill-opacity:1;stroke:#000000;stroke-width:4;stroke-miterlimit:4;stroke-dasharray:none"
       id="path2999-1"
       sodipodi:cx="-756"
       sodipodi:cy="-81.637817"
       sodipodi:rx="45"
       sodipodi:ry="45"
       d="m -711,-81.637817 a 45,45 0 1 1 -90,0 45,45 0 1 1 90,0 z"
       transform="translate(540,0)" />
    <path
       sodipodi:type="arc"
       style="fill:#ffffff;fill-opacity:1;stroke:#000000;stroke-width:4;stroke-miterlimit:4;stroke-dasharray:none"
       id="path2999-9"
       sodipodi:cx="-756"
       sodipodi:cy="-81.637817"
       sodipodi:rx="45"
       sodipodi:ry="45"
       d="m -711,-81.637817 a 45,45 0 1 1 -90,0 45,45 0 1 1 90,0 z"
       transform="translate(648,0)" />
    <path
       style="fill:#000080;fill-opacity:1;stroke:none;stroke-width:4;stroke-linecap:round;stroke-miterlimit:4;stroke-opacity:1;stroke-dasharray:none;stroke-dashoffset:0"
       d="M -810 -27.625 L -810 -18.625 L -810 -0.625 L -801 -0.625 L -801 -18.625 L -783 -18.625 L -783 -27.625 L -801 -27.625 L -810 -27.625 z M -729 -27.625 L -729 -18.625 L -711 -18.625 L -711 -0.625 L -702 -0.625 L -702 -27.625 L -729 -27.625 z M -810 53.375 L -810 71.375 L -810 80.375 L -783 80.375 L -783 71.375 L -801 71.375 L -801 53.375 L -810 53.375 z M -711 53.375 L -711 71.375 L -729 71.375 L -729 80.375 L -702 80.375 L -702 71.375 L -702 53.375 L -711 53.375 z "
       id="rect3985" />
    <path
       sodipodi:type="arc"
       style="fill:#80ff80;fill-opacity:1;stroke:none"
       id="path4004"
       sodipodi:cx="-648"
       sodipodi:cy="26.362183"
       sodipodi:rx="27"
       sodipodi:ry="27"
       d="m -621,26.362183 a 27,27 0 1 1 -54,0 27,27 0 1 1 54,0 z" />
    <path
       sodipodi:type="arc"
       style="fill:#ffff80;fill-opacity:1;stroke:none"
       id="path4006"
       sodipodi:cx="-540"
       sodipodi:cy="26.362183"
       sodipodi:rx="27"
       sodipodi:ry="27"
       d="m -513,26.362183 a 27,27 0 1 1 -54,0 27,27 0 1 1 54,0 z" />
    <path
       sodipodi:type="arc"
       style="fill:#ff8080;fill-opacity:1;stroke:none"
       id="path4008"
       sodipodi:cx="-432"
       sodipodi:cy="26.362183"
       sodipodi:rx="27"
       sodipodi:ry="27"
       d="m -405,26.362183 a 27,27 0 1 1 -54,0 27,27 0 1 1 54,0 z" />
  </g>
</svg>
