<?xml version="1.0" encoding="UTF-8" standalone="no"?>
<!-- Created with Inkscape (http://www.inkscape.org/) -->

<svg
   xmlns:dc="http://purl.org/dc/elements/1.1/"
   xmlns:cc="http://creativecommons.org/ns#"
   xmlns:rdf="http://www.w3.org/1999/02/22-rdf-syntax-ns#"
   xmlns:svg="http://www.w3.org/2000/svg"
   xmlns="http://www.w3.org/2000/svg"
   xmlns:sodipodi="http://sodipodi.sourceforge.net/DTD/sodipodi-0.dtd"
   xmlns:inkscape="http://www.inkscape.org/namespaces/inkscape"
   width="640"
   height="320"
   id="svg2"
   version="1.1"
   inkscape:version="0.48.4 r9939"
   sodipodi:docname="New document 1">
  <defs
     id="defs4" />
  <sodipodi:namedview
     id="base"
     pagecolor="#ffffff"
     bordercolor="#666666"
     borderopacity="1.0"
     inkscape:pageopacity="0.0"
     inkscape:pageshadow="2"
     inkscape:zoom="8"
     inkscape:cx="237.44052"
     inkscape:cy="216.23428"
     inkscape:document-units="px"
     inkscape:current-layer="layer1"
     showgrid="true"
     inkscape:snap-bbox="true"
     inkscape:window-width="1440"
     inkscape:window-height="838"
     inkscape:window-x="-8"
     inkscape:window-y="-8"
     inkscape:window-maximized="1">
    <inkscape:grid
       type="xygrid"
       id="grid2985"
       empspacing="10"
       visible="true"
       enabled="true"
       snapvisiblegridlinesonly="true"
       spacingx="4px"
       spacingy="4px" />
  </sodipodi:namedview>
  <metadata
     id="metadata7">
    <rdf:RDF>
      <cc:Work
         rdf:about="">
        <dc:format>image/svg+xml</dc:format>
        <dc:type
           rdf:resource="http://purl.org/dc/dcmitype/StillImage" />
        <dc:title></dc:title>
      </cc:Work>
    </rdf:RDF>
  </metadata>
  <g
     inkscape:label="Layer 1"
     inkscape:groupmode="layer"
     id="layer1"
     transform="translate(0,-732.36218)">
    <path
       style="fill:#000000;fill-opacity:1;stroke:none;stroke-width:4.30000019000000040;stroke-miterlimit:4;stroke-opacity:1;stroke-dasharray:none"
       d="M 172 80 L 172 84 L 164 84 L 164 88 L 164 92 L 160 92 L 160 96 L 164 96 L 168 96 L 168 88 L 176 88 L 176 84 L 176 80 L 172 80 z M 184 80 L 184 84 L 184 88 L 192 88 L 192 96 L 196 96 L 200 96 L 200 92 L 196 92 L 196 88 L 196 84 L 188 84 L 188 80 L 184 80 z M 160 104 L 160 108 L 164 108 L 164 116 L 168 116 L 172 116 L 172 120 L 176 120 L 176 116 L 176 112 L 168 112 L 168 108 L 168 104 L 160 104 z M 192 104 L 192 112 L 184 112 L 184 116 L 184 120 L 188 120 L 188 116 L 196 116 L 196 112 L 196 108 L 200 108 L 200 104 L 196 104 L 192 104 z "
       transform="translate(0,732.36218)"
       id="rect2987" />
    <path
       style="fill:#000000;stroke:none"
       d="m 144,796.36218 4,8 -8,0 z"
       id="path3795"
       inkscape:connector-curvature="0" />
    <path
       style="fill:#000000;fill-opacity:1;stroke:none"
       d="M 204 84 L 204 116 L 236 116 L 236 84 L 204 84 z M 208 88 L 232 88 L 232 112 L 208 112 L 208 88 z "
       transform="translate(0,732.36218)"
       id="rect3797" />
    <path
       style="fill:#000000;fill-opacity:1;stroke:none"
       d="M 252 80 L 252 84 L 244 84 L 244 116 L 276 116 L 276 84 L 268 84 L 268 80 L 264 80 L 264 88 L 268 88 L 272 88 L 272 112 L 248 112 L 248 88 L 252 88 L 256 88 L 256 80 L 252 80 z "
       transform="translate(0,732.36218)"
       id="rect3797-1" />
  </g>
</svg>
